<?xml version="1.0" encoding="UTF-8"?>
<svg version="1.1" viewBox="0 0 2048 1536" width="1280" height="1280" xmlns="http://www.w3.org/2000/svg">
<path transform="translate(0)" d="m0 0h2048v1536h-2048z" fill="#EDEDED"/>
<path transform="translate(752,145)" d="m0 0h69l42 4 30 5 28 7 41 13 27 11 33 16 26 15 23 15 21 14-2 5-17 16-13 12-19 19-8 7-7 7-8 7-7 7-7 8-15 14-17 16-4 5-5-1-11-7-12-7-23-11-25-10-37-10-22-4-25-3h-47l-29 4-35 8-26 8-16 7-16 8-18 10-16 11-12 9-13 11-12 11-21 21-11 14-9 13-13 21-8 14-9 20-10 27-8 31-4 26-1 10v53l2 21 6 31 8 27 16 38 13 23 10 15 12 16 13 15 11 12 13 12 14 11 15 11 22 13 25 13 23 9 29 9 27 6 29 4h48l36-5 33-7 35-12 20-9 21-11 11-7 19-13 14-12 8-7 6-5 5 1 9 10 7 8 24 24 13 10 15 10 17 9 25 9 17 3h258l18-3 21-7 17-8 13-10 11-10 9-12 8-14 6-17 2-7 1-9v-27l-2-15-4-15-6-15-8-12-13-15-12-10-16-9-15-6-17-4h-56l-5-1-54-1-3-2v-10l3-26v-70l-3-30-4-22 1-1 24-1 50-1 18-4 11-4 15-8 12-9 8-7 8-11 9-15 6-14 4-20v-28l-5-21-6-15-10-16-9-10-9-8-16-10-15-7-21-5-22-2-3-2 6-8 14-14 8-7 15-14 37-37 8-7 17-16 27-27 14 5 20 10 21 13 13 11 11 9 21 21 14 19 11 18 8 15 9 23 8 30 4 22v47l-6 32-7 24-6 16-8 16-9 16-8 12-13 16-8 8-7 8-2 2v3l18 12 14 11 15 14 18 18 13 17 12 19 10 18 8 18 8 22 7 28 4 33v33l-3 28-5 24-8 26-8 20-12 24-10 16-14 19-8 9-9 11-11 11-11 9-16 13-15 10-15 9-24 12-27 11-26 7-30 5-12 1h-363l-8-7-7-7-6-7-8-7-18-18-9 2-30 13-47 16-36 9-39 6-25 3-13 1h-38l-45-4-35-5-29-6-42-13-24-9-26-12-20-10-14-8-22-14-23-16-13-10-11-9-10-9-12-11-7-7-8-7-9-10-10-11-8-10-8-9-13-19-10-15-12-21-10-18-11-24-14-36-6-19-9-37-4-22-3-20-2-20-1-25v-29l2-29 3-25 6-31 9-37 11-33 12-29 10-21 12-22 12-20 12-17 14-19 12-14 9-11 12-12 7-8 18-18 11-9 17-14 14-10 21-14 20-12 27-14 24-11 27-10 24-8 31-8 27-5 22-3z" fill="#0C2F45"/>
<path transform="translate(1476,198)" d="m0 0 14 5 20 10 21 13 13 11 11 9 21 21 14 19 11 18 8 15 9 23 8 30 4 22v47l-6 32-7 24-6 16-8 16-9 16-8 12-13 16-8 8-7 8-2 2v3l18 12 14 11 15 14 18 18 13 17 12 19 10 18 8 18 8 22 7 28 4 33v33l-3 28-5 24-8 26-8 20-12 24-10 16-14 19-8 9-9 11-11 11-11 9-16 13-15 10-15 9-24 12-27 11-26 7-30 5-12 1h-363l-8-7-7-7-6-7-8-7-18-18v-2h-2l-4-6-22-22-8-7-19-19-8-7-9-9-8-7-48-48-3-2 10-4 26-9 20-9 21-11 11-7 19-13 14-12 8-7 6-5 5 1 9 10 7 8 24 24 13 10 15 10 17 9 25 9 17 3h258l18-3 21-7 17-8 13-10 11-10 9-12 8-14 6-17 2-7 1-9v-27l-2-15-4-15-6-15-8-12-13-15-12-10-16-9-15-6-17-4h-56l-5-1-54-1-3-2v-10l3-26v-70l-3-30-4-22 1-1 24-1 50-1 18-4 11-4 15-8 12-9 8-7 8-11 9-15 6-14 4-20v-28l-5-21-6-15-10-16-9-10-9-8-16-10-15-7-21-5-22-2-3-2 6-8 14-14 8-7 15-14 37-37 8-7 17-16z" fill="#0C2F45"/>
<path transform="translate(1308,78)" d="m0 0h5l9 9 8 7 21 21 8 7 6 5 4 4v2l3 1 4 5 3 2v2l3 1v2l4 2 3 3v2l4 2 5 5 4 5 8 7 9 9 8 7 5 5-2 4-72 72-8 7-55 55-8 7-12 11-54 54-8 7-27 27h-2l-1 3h-2l-2 4-15 14-17 16-7 7-8 7-34 34-8 7-14 14-8 7-17 17-8 7-7 6-7 8-20 20-11 9-15 16-10 9-14 14-8 7-31 31-8 7-10 9-7 8-33 33-8 7-43 43-8 7-10 9-7 5-8-7-12-12-8-7-34-34-8-7-55-55-8-7-42-42-11-9-42-42-8-7-14-14 1-5 13-11 8-8 8-7 31-31 10-8 45-45 5-3 19 19 8 7 21 21 8 7 17 16 21 21 8 7 14 14 11 9 7 5 2-6 8-8 8-7 18-18h2l2-4 8-7 40-40h2l1-3 5-4 15-15 8-7 36-36 8-7 22-22 8-7 38-38 8-7 56-56 4-5 6-5 7-8 19-19 8-7 15-14 24-24h2l1-3 8-7 25-25 8-7 55-55 8-7 15-15 6-5 5-6z" fill="#0C2F45"/>
<path transform="translate(527,813)" d="m0 0 7 1 8 10 12 14 11 12 13 12 14 11 15 11 22 13 25 13 23 9 29 9 27 6 29 4h48l36-5 29-6 6 1 54 54 8 7 9 9 8 7 19 19 8 7 19 19 1 4 2 1-14 5-25 11-47 16-36 9-39 6-25 3-13 1h-38l-45-4-35-5-29-6-42-13-24-9-26-12-20-10-14-8-22-14-23-16-13-10-11-9-10-9-12-11-7-7-8-7-9-10-10-11-4-5 2-4 9-10 8-8h2l2-4 5-4 7-8 16-15 13-12 16-16 8-7 19-19 11-9z" fill="#1E6DAE"/>
<path transform="translate(1308,78)" d="m0 0h5l9 9 8 7 21 21 8 7 6 5 4 4v2l3 1 4 5 3 2v2l3 1v2l4 2 3 3v2l4 2 5 5 4 5 8 7 9 9 8 7 5 5-2 4-72 72-8 7-55 55-8 7-12 11-54 54-8 7-27 27h-2l-1 3h-2l-2 4-15 14-17 16-7 7-8 7-18 18-5-1-9-7-12-11-8-7-8-8-8-7-18-18-8-7-17-17-8-7-14-13-8-10-1-3 32-32 8-7 56-56 4-5 6-5 7-8 19-19 8-7 15-14 24-24h2l1-3 8-7 25-25 8-7 55-55 8-7 15-15 6-5 5-6z" fill="#1E6DAE"/>
<path transform="translate(1229,439)" d="m0 0 3 1 16 42 11 35 6 28 5 34 2 31v44l-3 31-6 37-6 25-7 24-11 31-11 25-8 16-12 23-15 24-10 14-4 2h-10l-23-3-18-5-20-9-18-11-13-11-12-11-13-12-17-17 2-4 6-9 12-17 12-21 11-22 11-28 8-28 6-28 2-16v-46l-3-32-1-11 6-8 12-12 8-7 22-22 8-7 17-16 12-12 8-7 14-14 7-8 8-8z" fill="#1F6EAF"/>
<path transform="translate(166,1268)" d="m0 0h20l19 3 18 7 12 8 11 9 8 8 10 15 7 16 3 11v32l-4 17-8 16-7 10 1 5 9 10 7 8 6 7v3h-49l-1-6-14 3-15 6-9 2h-22l-18-4-16-6-13-8-13-11-8-9-7-11-7-14-4-15v-34l4-16 11-21 12-14 11-9 13-8 11-5 15-4z" fill="#0C2F46"/>
<path transform="translate(1862,1316)" d="m0 0h27l13 5 10 7 3-9h43v131l-2 16-7 21-7 11-9 10-10 7-14 7-10 3-7 1h-22l-17-3-23-9-11-7-2-2 2-9 10-24 1-2 9 3 16 8 14 4h12l12-3 8-5 6-7 4-9 2-8v-8l-11 6-8 4-11 3h-13l-15-4-12-6-13-11-10-14-6-14-3-15v-16l3-14 5-13 7-11 9-10 10-7 10-5z" fill="#0C2F46"/>
<path transform="translate(878,1271)" d="m0 0 81 1 19 3 10 3 11 6 8 7 7 12 1 6v20l-3 10-6 10-7 7-1 3 12 7 8 8 5 10 1 3v23l-5 13-4 6-9 10-11 7-16 6-6 1h-95l-1-1v-180z" fill="#0C3046"/>
<path transform="translate(1286,1315)" d="m0 0h14l13 2 12 4 12 7 10 9 6 7 8 14 4 10 1 5v23l-4 16-7 14-11 13-15 10-17 7-11 2h-16l-15-3-11-4-13-7-11-11-7-11-5-10-3-12v-28l3-12 7-14 11-13 12-9 11-5 10-3z" fill="#0C2F46"/>
<path transform="translate(1115,1315)" d="m0 0 22 1 12 3 16 8 10 9 7 8 9 16 3 11 1 7v14l-4 20-8 15-11 12-7 6-9 5-16 6-18 2-14-1-16-4-12-6-11-9-8-9-8-14-4-12-1-6v-21l4-16 8-16 9-10 8-7 10-6 15-5z" fill="#0C2F46"/>
<path transform="translate(1398,1264)" d="m0 0h44l1 103 8-9 8-10 12-14 12-15h52l-4 8-15 16-9 11-12 14-11 12-2 4 9 11 12 14 14 15 9 11 7 7 5 8v4h-22l-28-1-9-10-14-15-12-13-8-10-2-1v21l-1 28h-44z" fill="#0C2F46"/>
<path transform="translate(712,1264)" d="m0 0h43v105l5-5 6-8 22-26 8-10 2-1h50l-2 6-13 14-7 8-24 28-6 8 1 4 11 12 10 11 9 11 16 17 9 11 1 4-3 1h-40l-7-1-5-4-7-8-9-9-7-8-14-15-5-6-1 50h-44v-79z" fill="#0C2F45"/>
<path transform="translate(303,1319)" d="m0 0h43l1 1 1 79 4 10 5 5 5 2 14-1 9-6 5-9 1-8 1-58 1-15h43l1 2v122l-2 9-1 1-24 1h-16v-12l-12 7-10 7-9 3h-16l-13-5-12-9-8-8-8-14-3-12z" fill="#0C3047"/>
<path transform="translate(1719,1316)" d="m0 0h24l13 5 9 7 8 9 6 12 3 9 1 7 1 18v17l-1 34-1 19h-43l-1-28-1-52-3-9-4-5-4-2h-15l-9 5-6 9-2 9-1 49-2 20-1 4h-41v-134h43v10l14-8 9-4z" fill="#0C3047"/>
<path transform="translate(610,1316)" d="m0 0h36l16 5 14 7 3 3-2 9-9 20-3 6h-3l-10-6-10-3h-19l-10 4-5 4-6 8-2 5v15l4 10 7 8 12 5h14l12-3 13-6h3l8 16 5 12 1 5-5 5-9 6-15 5-11 2h-19l-19-4-14-7-10-8-5-5-7-8-5-10-6-18v-20l3-14 5-12 7-11 6-7 12-9 15-7z" fill="#0C3046"/>
<path transform="translate(164,1308)" d="m0 0h27l12 5 10 8 7 7 7 11 4 12v21l-3 12-3 4-5-1-2-2-1-4-39-1 6 10 12 15 3 6-1 4-6 2h-29l-12-5-10-8-8-9-7-15-2-10v-16l3-11 6-12 9-11 10-7 8-4z" fill="#EDEDED"/>
<path transform="translate(477,1319)" d="m0 0h44v124l-1 10h-43z" fill="#0C2F45"/>
<path transform="translate(1564,1319)" d="m0 0h44v118l-1 15-1 1h-42z" fill="#0C2F46"/>
<path transform="translate(1115,1354)" d="m0 0h10l10 3 10 9 5 10 1 3v15l-4 10-8 9-8 4h-20l-9-5-8-11-3-8v-11l3-10 6-9 6-5z" fill="#EDEDED"/>
<path transform="translate(1879,1354)" d="m0 0h10l11 4 8 7 5 10 1 3v17l-4 8-8 9-6 4-7 2h-11l-8-3-8-7-5-7-2-5v-17l4-9 4-6 8-7z" fill="#EDEDED"/>
<path transform="translate(1287,1354)" d="m0 0h10l11 4 9 9 4 8 1 4v15l-6 12-7 7-8 4h-19l-10-6-6-8-3-9v-15l7-14 9-8z" fill="#EDEDED"/>
<path transform="translate(498,1250)" d="m0 0 11 2 8 5 5 6 3 7v12l-3 8-6 7-12 6h-12l-10-6-7-9-2-8v-7l3-10 5-6 10-6z" fill="#0C3047"/>
<path transform="translate(1578,1251)" d="m0 0h15l8 4 8 9 3 8v10l-5 10-7 7-9 4h-11l-10-5-7-8-3-6v-14l5-10 7-6z" fill="#0C3046"/>
<path transform="translate(922,1380)" d="m0 0h39l12 3 6 5 2 6-1 9-4 6-10 4-6 1h-38l-1-1v-31z" fill="#EDEDED"/>
<path transform="translate(922,1311)" d="m0 0h31l10 2 5 3 4 5v9l-5 7-6 3-4 1-21 1h-14l-1-4v-26z" fill="#EDEDED"/>
</svg>
